<?xml version="1.0" encoding="UTF-8"?>
<svg viewBox="0 0 1600 900" xmlns="http://www.w3.org/2000/svg">
  <rect width="1600" height="900" fill="#0F1011"/>
  <!-- Host on right, full size -->
  <g transform="translate(1050 200)">
    <g transform="scale(7)">
      <rect x="-11" y="18" width="22" height="68" rx="4" fill="#F0EDE4" />
      <rect x="-10" y="86" width="8" height="4" rx="2" fill="#F0EDE4" />
      <rect x="2" y="86" width="8" height="4" rx="2" fill="#F0EDE4" />
      <rect x="-4" y="11" width="8" height="7" rx="2" fill="#F0EDE4" />
      <rect x="-3" y="16" width="6" height="3" fill="#D7382C" />
      <rect x="-20" y="28" width="9" height="26" rx="4.5" fill="#F0EDE4" />
      <rect x="11" y="-8" width="9" height="36" rx="4.5" fill="#F0EDE4" />
      <rect x="-10" y="-20" width="20" height="22" rx="6" fill="#F0EDE4" />
      <circle cx="-4" cy="-8" r="1.5" fill="#1A1520" />
      <circle cx="4" cy="-8" r="1.5" fill="#1A1520" />
      <path d="M -3.5 -2.5 L 3.5 -2.5" stroke="#1A1520" stroke-width="1" stroke-linecap="round" />
    </g>
  </g>
  <!-- Wizard on left, scaled small -->
  <g transform="translate(450 600) scale(3.2)">
    <path d="M -12 0 L -18 50 L 18 50 L 12 0 Z" fill="#B49FCC" />
    <rect x="-19" y="2" width="5" height="26" rx="2.5" fill="#B49FCC" />
    <rect x="14" y="2" width="5" height="26" rx="2.5" fill="#B49FCC" />
    <circle cx="0" cy="-8" r="11" fill="#B49FCC" />
    <path d="M -7 -8 L -1 -8" stroke="#1A1520" stroke-width="1.2" stroke-linecap="round" />
    <path d="M 1 -8 L 7 -8" stroke="#1A1520" stroke-width="1.2" stroke-linecap="round" />
    <path d="M -3 -3 L 3 -3" stroke="#1A1520" stroke-width="0.9" stroke-linecap="round" />
    <path d="M -14 -19 L 0 -42 L 14 -19 Z" fill="#2A2530" />
    <path d="M 0 -31 L 0.8 -28.8 L 3 -28 L 0.8 -27.2 L 0 -25 L -0.8 -27.2 L -3 -28 L -0.8 -28.8 Z" fill="#FFFFFF" />
    <circle cx="-6" cy="-24" r="1.2" fill="#FFFFFF" />
    <circle cx="6" cy="-24" r="1.2" fill="#FFFFFF" />
  </g>
</svg>
